<?xml version="1.0" standalone="no"?>
<!DOCTYPE svg PUBLIC "-//W3C//DTD SVG 20010904//EN"
 "http://www.w3.org/TR/2001/REC-SVG-20010904/DTD/svg10.dtd">
<svg version="1.0" xmlns="http://www.w3.org/2000/svg"
 width="740.000000pt" height="937.000000pt" viewBox="0 0 740.000000 937.000000"
 preserveAspectRatio="xMidYMid meet">

<g transform="translate(0.000000,937.000000) scale(0.100000,-0.100000)"
fill="#000000" stroke="none">
<path d="M3990 8874 c-154 -58 -277 -71 -358 -39 -49 20 -66 12 -88 -42 -13
-30 -16 -31 -42 -22 -36 12 -68 1 -115 -41 -54 -47 -105 -131 -124 -204 -17
-62 -17 -69 0 -133 9 -38 17 -90 17 -116 0 -116 59 -294 115 -347 l26 -24 -3
79 c-2 63 -6 80 -18 81 -8 1 -20 2 -26 2 -18 3 -44 66 -44 107 0 50 15 75 46
75 21 0 29 -9 49 -52 l23 -53 11 28 c6 16 11 70 11 122 0 62 4 96 12 101 6 4
35 6 63 5 106 -5 278 63 390 154 30 25 60 43 65 40 16 -10 48 -109 55 -174 6
-54 9 -61 19 -45 7 11 11 73 12 156 0 117 3 140 18 157 42 46 58 149 30 189
-20 29 -60 28 -144 -4z"/>
<path d="M3697 8329 c-20 -5 -49 -16 -62 -25 -29 -19 -35 -50 -7 -39 9 4 40 9
67 12 80 7 95 12 95 32 0 30 -26 36 -93 20z"/>
<path d="M3944 8325 c-9 -22 4 -35 36 -35 16 0 40 -4 53 -9 29 -11 37 -7 30
19 -9 34 -108 55 -119 25z"/>
<path d="M3716 8225 c-13 -36 26 -68 44 -35 5 10 7 26 4 34 -8 20 -40 21 -48
1z"/>
<path d="M3981 8226 c-16 -19 -8 -46 13 -46 20 0 29 31 13 47 -12 12 -16 12
-26 -1z"/>
<path d="M3833 7973 c31 -2 83 -2 115 0 31 2 5 3 -58 3 -63 0 -89 -1 -57 -3z"/>
<path d="M3348 7622 c-17 -28 -76 -90 -111 -115 -16 -11 -10 -17 60 -58 131
-77 281 -128 374 -129 l36 0 7 -61 c3 -34 6 -116 7 -183 0 -67 5 -143 9 -171
6 -31 7 40 4 185 l-5 235 36 19 c20 11 63 49 97 84 l60 65 -41 40 -40 41 -47
-23 c-63 -32 -157 -39 -226 -16 -29 9 -86 39 -126 66 -40 27 -74 49 -75 49 -2
0 -10 -13 -19 -28z"/>
<path d="M3020 7303 c46 -90 80 -214 80 -288 0 -55 -9 -72 -183 -338 -88 -135
-90 -137 -83 -137 4 0 21 22 39 48 17 27 71 107 119 179 116 172 132 209 124
285 -12 99 -99 328 -126 328 -5 0 9 -35 30 -77z"/>
<path d="M3783 7263 c-16 -6 -17 -69 -3 -78 17 -11 40 15 40 45 0 28 -15 41
-37 33z"/>
<path d="M4218 7153 l-3 -98 -14 75 c-7 41 -18 84 -23 95 -9 21 -9 19 17 -197
8 -64 19 -187 26 -275 6 -87 13 -160 15 -162 13 -14 12 25 -1 194 -12 142 -13
206 -5 262 13 94 13 203 0 203 -5 0 -11 -44 -12 -97z"/>
<path d="M3784 7116 c-11 -28 0 -61 21 -61 16 0 20 7 20 35 0 25 -5 36 -18 38
-9 2 -20 -3 -23 -12z"/>
<path d="M3790 6951 c-14 -27 4 -64 28 -59 24 5 24 71 0 76 -9 2 -22 -6 -28
-17z"/>
<path d="M2963 5543 c-7 -2 -13 -9 -13 -15 0 -7 5 -7 13 1 8 6 18 7 22 3 5 -4
5 -1 1 6 -4 6 -8 12 -9 11 -1 0 -8 -3 -14 -6z"/>
<path d="M4195 5207 c-50 -9 -1123 -16 -1265 -8 l-75 5 -17 -80 c-10 -51 -17
-130 -17 -224 -1 -183 42 -1301 69 -1805 16 -294 29 -603 45 -1070 16 -476 32
-804 41 -846 4 -21 13 -28 41 -34 30 -5 34 -9 29 -29 -22 -87 -59 -357 -59
-431 -1 -115 20 -162 88 -195 41 -20 58 -22 148 -18 112 4 154 19 184 65 27
42 20 190 -21 423 -28 161 -31 198 -21 210 7 8 20 65 29 125 23 155 121 1008
211 1825 42 382 79 706 82 720 4 17 26 -55 69 -225 l63 -250 1 -247 c0 -292
-3 -274 185 -1188 64 -311 124 -603 133 -650 14 -69 22 -87 40 -95 26 -12 26
-9 7 -108 -23 -121 -20 -171 11 -196 31 -25 116 -53 264 -88 99 -23 136 -27
265 -27 92 0 161 5 178 12 35 15 62 73 47 102 -6 11 -74 50 -156 89 -142 69
-246 134 -293 184 l-23 25 31 16 c17 9 31 24 31 34 0 36 -61 917 -120 1732
-65 898 -114 1581 -130 1830 -16 236 -32 414 -39 421 -3 3 -28 1 -56 -4z"/>
</g>
</svg>
